<?xml version="1.0" encoding="utf-8"?>
<!-- Generator: Adobe Illustrator 16.0.0, SVG Export Plug-In . SVG Version: 6.00 Build 0)  -->
<!DOCTYPE svg PUBLIC "-//W3C//DTD SVG 1.1//EN" "http://www.w3.org/Graphics/SVG/1.1/DTD/svg11.dtd">
<svg version="1.1" id="Layer_1" xmlns="http://www.w3.org/2000/svg" xmlns:xlink="http://www.w3.org/1999/xlink" x="0px" y="0px"
	 width="625.468px" height="552.021px" viewBox="0 0 625.468 552.021" enable-background="new 0 0 625.468 552.021"
	 xml:space="preserve">
<path fill-rule="evenodd" clip-rule="evenodd" fill="#888888" d="M618.734,552.021c-203.998,0-408.004,0-612,0
	c0.155-19.402,12.051-27.062,20.707-37.963c3.528-1.613,6.55-4.131,9.778-6.326c22.422-15.246,48.543-27.004,74.199-38.539
	c29.52-13.271,59.741-26.762,90.88-37.961c0.093-6.828,7.054-14.166,9.203-23.008c2.09-8.604,0.902-16.834,6.327-21.282
	c3.248-2.663,7.462-2.071,12.079-2.876c1.038-12.962,1.904-25.199,3.451-37.387c0.507-3.994,1.982-9.572,1.15-12.654
	c-0.444-1.645-3.291-4.178-5.177-6.328c-2.511-2.863-4.738-5.504-6.327-6.902c-0.285-0.25,0.227-1.409,0-1.725
	c-2.797-3.892-6.294-8.309-6.902-13.805c-3.297-4.707-4.129-11.881-5.177-18.406c-1.113-6.932-3.467-12.867-4.026-18.406
	c-2.029-3.553-7.301-9.505-9.203-14.955c-3.891-11.149-3.825-26.816-5.177-40.838c-0.86-8.922-1.491-12.561,4.602-13.805
	c1.706-0.348,4.973,1.494,5.177-1.15c-0.527-27.099,0.643-54.267,1.15-79.95c0.18-9.098-0.686-17.912,1.15-25.883
	c1.656-7.19,5.875-15.521,10.354-21.857c4.317-6.108,10.093-11.866,15.53-16.681c2.24-1.983,5.277-5.256,7.478-6.327
	c7.258-3.533,14.472-9.765,21.282-13.229c7.626-3.88,14.755-6.313,23.008-9.203c12.141-4.251,24.757-7.445,37.963-10.353
	c8.52-1.877,17.326-4.635,26.459-5.752c9.232-1.129,19.721-3.812,28.758,0.575c-1.137,4.271-5.096,6.063-8.053,8.628
	c-2.83,2.455-7.379,4.3-6.326,10.353c0.076,4.558,5.203,6.185,8.053,8.053c2.604,1.708,6.395,3.929,8.053,5.752
	c0.561,0.617,1.016,0.045,1.725,0.575c12.418,9.271,23.33,19.511,32.787,31.635c4.867,6.241,9.818,13.237,11.504,21.282
	c1.592,7.606,0.945,16.789,1.15,25.308c0.65,27.229-0.488,53.428,0,80.525c11.76-2.34,8.873,6.486,8.051,16.682
	c-1.305,16.213-1.855,32.377-6.9,42.562c-1.816,3.668-5.625,6.76-6.902,9.779c-1.441,3.403-1.906,8.229-2.877,12.078
	c-3.953,15.697-8.58,30.605-16.105,41.414c-1.842,2.646-4.451,5.199-5.176,7.477c-2.381,7.486-0.166,17.234-0.576,25.885
	c-0.455,9.649-0.867,18.236-0.574,26.458c-0.533,2.245,4.139-0.759,5.176,1.15c9.695,2.845,7.23,13.356,9.779,23.007
	c0.98,3.715,3.645,7.422,5.176,10.93c1.965,4.504,3.111,8.604,4.602,12.078c50.922,20.439,106.867,42.303,154.15,66.723
	c6.389,3.299,13.936,6.852,18.98,10.928c0.934,0.754,1.578,2.207,2.301,2.877c11.486,10.631,21.234,22.869,25.309,40.262
	C618.734,551.639,618.734,551.83,618.734,552.021z"/>
</svg>
